<svg id="Layer_1" height="512" viewBox="0 0 150 150" width="512" xmlns="http://www.w3.org/2000/svg" data-name="Layer 1"><circle cx="75" cy="75" fill="#ea8953" r="64"/><path d="m91.207 32.5h9.702v85h-9.702z" fill="#3a556a"/><path d="m92.463 32.5h1.753v85h-1.753z" fill="#64798a"/><path d="m49.091 32.5h9.702v85h-9.702z" fill="#3a556a"/><path d="m50.347 32.5h1.753v85h-1.753z" fill="#64798a"/><path d="m70.149 53.558h9.702v85h-9.702z" fill="#3a556a" transform="matrix(0 1 -1 0 171.058 21.058)"/><path d="m74.123 50.84h1.753v85h-1.753z" fill="#64798a" transform="matrix(0 1 -1 0 168.34 18.34)"/><path d="m70.149 11.442h9.702v85h-9.702z" fill="#3a556a" transform="matrix(0 1 -1 0 128.942 -21.058)"/><path d="m74.123 8.723h1.753v85h-1.753z" fill="#64798a" transform="matrix(0 1 -1 0 126.223 -23.777)"/><g fill="#2f4859"><rect height="22.928" rx="2.876" transform="matrix(.707 .707 -.707 .707 53.942 -22.343)" width="6.258" x="50.813" y="42.478"/><rect height="22.928" rx="2.876" transform="matrix(-.707 .707 -.707 -.707 130.227 53.942)" width="6.258" x="50.813" y="42.478"/><rect height="22.928" rx="2.876" transform="matrix(.707 .707 -.707 .707 66.277 -52.124)" width="6.258" x="92.929" y="42.478"/><rect height="22.928" rx="2.876" transform="matrix(-.707 .707 -.707 -.707 202.124 24.161)" width="6.258" x="92.929" y="42.478"/><rect height="22.928" rx="2.876" transform="matrix(.707 .707 -.707 .707 83.723 -10.008)" width="6.258" x="50.813" y="84.594"/><rect height="22.928" rx="2.876" transform="matrix(-.707 .707 -.707 -.707 160.008 125.839)" width="6.258" x="50.813" y="84.594"/><rect height="22.928" rx="2.876" transform="matrix(.707 .707 -.707 .707 96.058 -39.789)" width="6.258" x="92.929" y="84.594"/><rect height="22.928" rx="2.876" transform="matrix(-.707 .707 -.707 -.707 231.905 96.058)" width="6.258" x="92.929" y="84.594"/></g></svg>